<svg xmlns="http://www.w3.org/2000/svg" viewBox="0 0 256 256" fill="none">
  <rect width="256" height="256" rx="40" fill="#F4EFE5"/>
  <g fill="#4A2818">
    <path d="M 78 52 C 68 52 60 60 60 70 L 60 92 C 60 98 64 102 70 102 L 84 102 C 90 102 94 98 94 92 L 94 80 C 94 72 102 66 110 66 L 146 66 C 154 66 162 72 162 80 L 162 92 C 162 98 166 102 172 102 L 186 102 C 192 102 196 98 196 92 L 196 70 C 196 60 188 52 178 52 Z"/>
    <circle cx="128" cy="170" r="68"/>
  </g>
  <g fill="#F4EFE5">
    <polygon points="120,124 128,134 136,124"/>
    <polygon points="80,134 100,134 96,154"/>
    <polygon points="156,134 176,134 160,154"/>
    <polygon points="84,160 118,160 102,186"/>
    <polygon points="138,160 172,160 154,186"/>
    <polygon points="124,168 132,168 128,210"/>
    <polygon points="106,198 124,198 116,214"/>
    <polygon points="132,198 150,198 142,214"/>
  </g>
</svg>
